HIERARCHY
ROOT Hips
{
	OFFSET 0.000000 0.000000 0.000000 
	CHANNELS 6 Xposition Yposition Zposition Zrotation Xrotation Yrotation
	JOINT Spine
	{
		OFFSET 0.068216 8.716983 0.061933 
		CHANNELS 3 Zrotation Xrotation Yrotation
		JOINT Spine1
		{
			OFFSET 0.091841 19.499594 0.154965 
			CHANNELS 3 Zrotation Xrotation Yrotation
			JOINT Neck
			{
				OFFSET 0.111973 23.130608 0.164272 
				CHANNELS 3 Zrotation Xrotation Yrotation
				JOINT Head
				{
					OFFSET 0.142121 15.879286 2.046665 
					CHANNELS 3 Zrotation Xrotation Yrotation
					End Site
					{
						OFFSET -0.000000 19.661171 0.000000 
					}
				}
			}
			JOINT LeftShoulder
			{
				OFFSET 4.006647 16.674030 -0.233922 
				CHANNELS 3 Zrotation Xrotation Yrotation
				JOINT LeftArm
				{
					OFFSET 19.848379 0.646019 0.045966 
					CHANNELS 3 Zrotation Xrotation Yrotation
					JOINT LeftForeArm
					{
						OFFSET 25.002844 0.326216 0.118852 
						CHANNELS 3 Zrotation Xrotation Yrotation
						JOINT LeftHand
						{
							OFFSET 27.270943 0.201616 0.168051 
							CHANNELS 3 Zrotation Xrotation Yrotation
							End Site
							{
								OFFSET 14.745877 0.000000 0.000000 
							}
						}
					}
				}
			}
			JOINT RightShoulder
			{
				OFFSET -3.818807 16.674065 -0.233921 
				CHANNELS 3 Zrotation Xrotation Yrotation
				JOINT RightArm
				{
					OFFSET -19.683405 0.660503 0.041885 
					CHANNELS 3 Zrotation Xrotation Yrotation
					JOINT RightForeArm
					{
						OFFSET -24.962872 0.233561 0.138901 
						CHANNELS 3 Zrotation Xrotation Yrotation
						JOINT RightHand
						{
							OFFSET -26.299232 0.143641 0.231017 
							CHANNELS 3 Zrotation Xrotation Yrotation
							End Site
							{
								OFFSET -14.745877 0.000000 0.000000 
							}
						}
					}
				}
			}
		}
	}
	JOINT LeftUpLeg
	{
		OFFSET 9.898802 0.655907 0.061934 
		CHANNELS 3 Zrotation Xrotation Yrotation
		JOINT LeftLeg
		{
			OFFSET 0.121209 -45.824165 0.025428 
			CHANNELS 3 Zrotation Xrotation Yrotation
			JOINT LeftFoot
			{
				OFFSET 0.142981 -29.653988 0.114248 
				CHANNELS 3 Zrotation Xrotation Yrotation
				JOINT LeftToeBase
				{
					OFFSET 0.140351 -5.745883 14.811176 
					CHANNELS 3 Zrotation Xrotation Yrotation
					End Site
					{
						OFFSET -0.000000 0.000000 3.932234 
					}
				}
			}
		}
	}
	JOINT RightUpLeg
	{
		OFFSET -9.762364 0.655901 0.061933 
		CHANNELS 3 Zrotation Xrotation Yrotation
		JOINT RightLeg
		{
			OFFSET -0.012337 -45.817001 0.076142 
			CHANNELS 3 Zrotation Xrotation Yrotation
			JOINT RightFoot
			{
				OFFSET 0.103903 -29.636383 -0.002943 
				CHANNELS 3 Zrotation Xrotation Yrotation
				JOINT RightToeBase
				{
					OFFSET -0.007732 -5.727583 14.747931 
					CHANNELS 3 Zrotation Xrotation Yrotation
					End Site
					{
						OFFSET -0.000000 0.000000 3.932234 
					}
				}
			}
		}
	}
}
MOTION
Frames: 12
Frame Time: 0.010000
0.000000 83.002380 0.000000 -1.741741 2.655821 1.871674 2.066202 -8.254443 0.034778 1.807842 -0.846446 -0.045716 2.761572 8.181242 1.956547 0.287662 12.361593 2.485801 2.433310 10.519713 1.197824 -70.872635 26.400139 -22.352581 -12.649017 1.357312 -5.306194 3.917107 0.823890 7.389255 -8.095150 10.185891 -11.186794 58.925644 49.957966 33.057659 5.597349 -11.502836 5.650403 -6.847594 -11.880691 -0.415446 4.849139 4.478820 6.878182 2.497459 -7.420713 2.873529 0.697974 5.012193 -0.677832 0.000000 0.000000 0.000000 -6.237476 -1.332500 6.548147 9.971743 4.561480 -14.937464 -10.476959 -0.136940 -6.341899 0.000000 0.000000 0.000000 
0.005995 82.996513 0.007353 -1.721072 2.628032 1.866119 2.118539 -8.280994 0.094648 1.700543 -0.772316 -0.028541 2.795502 8.185211 1.931406 0.297426 12.318080 2.465139 2.415153 10.390529 1.039511 -70.901184 26.243744 -22.116772 -12.680046 1.425162 -5.385482 3.937873 0.882370 7.408562 -8.088873 10.217883 -11.230577 58.934662 49.957157 33.148907 5.599988 -11.525940 5.582654 -6.905196 -11.900645 -0.416424 4.831152 4.532522 6.866012 2.534164 -7.403274 2.904207 0.238254 4.816125 -0.611293 0.000000 0.000000 0.000000 -6.267196 -1.297904 6.545734 9.983720 4.565239 -14.915764 -10.512828 -0.161652 -6.311189 0.000000 0.000000 0.000000 
0.005224 82.995964 0.009434 -1.724329 2.631480 1.866266 2.119008 -8.285507 0.093947 1.703324 -0.771130 -0.029200 2.791709 8.180791 1.936664 0.301663 12.318037 2.468661 2.414895 10.395275 1.041359 -70.901527 26.252445 -22.121159 -12.673783 1.418823 -5.378259 3.939625 0.877260 7.408803 -8.082048 10.220042 -11.229768 58.928864 49.951477 33.150780 5.606413 -11.522248 5.585016 -6.916089 -11.896510 -0.434333 4.833891 4.536047 6.867246 2.538223 -7.405199 2.906282 0.322949 4.824638 -0.638176 0.000000 0.000000 0.000000 -6.262732 -1.298912 6.543913 9.982910 4.564460 -14.903340 -10.518046 -0.161440 -6.318524 0.000000 0.000000 0.000000 
0.004330 82.995468 0.011837 -1.727643 2.634308 1.866974 2.119346 -8.290082 0.093251 1.706234 -0.769343 -0.030219 2.788113 8.176930 1.941704 0.305524 12.317624 2.472099 2.414649 10.399684 1.042816 -70.901764 26.260757 -22.125027 -12.667838 1.412586 -5.371506 3.941272 0.872411 7.409111 -8.075480 10.222318 -11.229395 58.923325 49.945824 33.152847 5.612651 -11.518421 5.587175 -6.926233 -11.892204 -0.452094 4.837262 4.540540 6.868003 2.542368 -7.407020 2.908048 0.400070 4.830517 -0.664884 0.000000 0.000000 0.000000 -6.258069 -1.298874 6.542042 9.981986 4.563387 -14.891198 -10.523193 -0.161144 -6.325946 0.000000 0.000000 0.000000 
0.003254 82.995049 0.014669 -1.731051 2.636594 1.868491 2.119486 -8.295094 0.090959 1.709404 -0.766680 -0.030208 2.784735 8.173901 1.946398 0.308852 12.316954 2.475401 2.414130 10.403559 1.043818 -70.901779 26.268761 -22.128181 -12.661884 1.406650 -5.365140 3.942396 0.867492 7.409195 -8.069195 10.224804 -11.229630 58.918255 49.940411 33.155209 5.618038 -11.514501 5.588810 -6.934875 -11.887764 -0.469547 4.841499 4.545980 6.868324 2.547038 -7.408320 2.909396 0.464736 4.831706 -0.691943 0.000000 0.000000 0.000000 -6.253222 -1.297698 6.540422 9.981198 4.561797 -14.879673 -10.528275 -0.160762 -6.333821 0.000000 0.000000 0.000000 
0.002050 82.994713 0.017941 -1.734420 2.638126 1.870741 2.119432 -8.300160 0.089474 1.712722 -0.763443 -0.031508 2.781661 8.171890 1.950690 0.311434 12.316093 2.478526 2.413515 10.406990 1.044577 -70.901527 26.275969 -22.130611 -12.656511 1.401171 -5.359684 3.943002 0.863004 7.409359 -8.063394 10.227428 -11.230512 58.913933 49.935062 33.157532 5.622969 -11.510406 5.590125 -6.942020 -11.883098 -0.486623 4.846541 4.552704 6.868032 2.552226 -7.409103 2.910354 0.516042 4.827754 -0.719540 0.000000 0.000000 0.000000 -6.248236 -1.295304 6.538897 9.980284 4.559998 -14.868979 -10.533230 -0.160336 -6.341633 0.000000 0.000000 0.000000 
0.000792 82.994461 0.021477 -1.737677 2.639279 1.873427 2.119275 -8.305139 0.086494 1.716107 -0.760071 -0.031624 2.778834 8.170898 1.954630 0.313345 12.315087 2.481570 2.412826 10.410123 1.045612 -70.901070 26.282637 -22.132809 -12.651384 1.396173 -5.354777 3.942746 0.858827 7.409364 -8.058138 10.230143 -11.231943 58.910789 49.929981 33.159435 5.627156 -11.506260 5.591094 -6.947747 -11.878341 -0.503208 4.852129 4.560165 6.867441 2.557979 -7.409083 2.911146 0.555516 4.818853 -0.748012 0.000000 0.000000 0.000000 -6.243441 -1.292292 6.537950 9.979725 4.557978 -14.859092 -10.537971 -0.159780 -6.349911 0.000000 0.000000 0.000000 
-0.000439 82.994301 0.025086 -1.740654 2.640603 1.876271 2.119066 -8.310291 0.085079 1.719249 -0.756927 -0.033337 2.776323 8.170992 1.958294 0.314680 12.313846 2.484525 2.412403 10.413120 1.047107 -70.900337 26.287861 -22.134802 -12.647515 1.392075 -5.351047 3.942005 0.855424 7.409674 -8.053458 10.233005 -11.233673 58.909103 49.925079 33.160595 5.630736 -11.502007 5.591866 -6.952259 -11.873468 -0.519120 4.857949 4.567689 6.866586 2.564202 -7.408208 2.911835 0.584924 4.805580 -0.777255 0.000000 0.000000 0.000000 -6.238907 -1.289571 6.537206 9.979106 4.556334 -14.849982 -10.542314 -0.159396 -6.358079 0.000000 0.000000 0.000000 
-0.001596 82.994202 0.028732 -1.743242 2.641927 1.879150 2.118767 -8.315233 0.082230 1.722162 -0.754035 -0.033602 2.774135 8.171895 1.961620 0.315395 12.312763 2.487391 2.412024 10.415781 1.049217 -70.899437 26.292351 -22.136827 -12.644035 1.388614 -5.347770 3.940366 0.852401 7.409826 -8.049220 10.235703 -11.235702 58.908958 49.920647 33.160709 5.633541 -11.497697 5.592421 -6.955658 -11.868517 -0.534240 4.863745 4.575303 6.865607 2.570951 -7.406309 2.912491 0.605464 4.788329 -0.807335 0.000000 0.000000 0.000000 -6.234909 -1.287004 6.536906 9.978778 4.554955 -14.841660 -10.546410 -0.159133 -6.366280 0.000000 0.000000 0.000000 
-0.002637 82.994148 0.032374 -1.745343 2.643235 1.881972 2.118283 -8.319809 0.079452 1.724945 -0.751565 -0.033955 2.771991 8.173603 1.964756 0.315806 12.311745 2.490177 2.411800 10.418172 1.052056 -70.898239 26.295696 -22.138832 -12.641702 1.385893 -5.345419 3.938238 0.850054 7.410110 -8.045677 10.238249 -11.237808 58.910477 49.916515 33.159657 5.635870 -11.493198 5.592926 -6.958209 -11.863396 -0.548557 4.869348 4.582927 6.864546 2.578144 -7.403409 2.913030 0.617799 4.767485 -0.837893 0.000000 0.000000 0.000000 -6.231496 -1.284680 6.536934 9.978514 4.554144 -14.833953 -10.549910 -0.159286 -6.374541 0.000000 0.000000 0.000000 
-0.003559 82.994148 0.035967 -1.746999 2.644682 1.884713 2.117730 -8.324158 0.077392 1.727445 -0.749452 -0.035020 2.769972 8.175982 1.967615 0.315941 12.310808 2.492783 2.411829 10.420302 1.055631 -70.896790 26.298471 -22.141235 -12.639961 1.383826 -5.343486 3.935441 0.848044 7.410220 -8.042744 10.240506 -11.239962 58.913551 49.913082 33.157497 5.637454 -11.488577 5.593351 -6.959805 -11.858144 -0.561992 4.874774 4.590291 6.863385 2.585709 -7.399578 2.913449 0.621692 4.743410 -0.868607 0.000000 0.000000 0.000000 -6.228669 -1.282760 6.537156 9.978397 4.553708 -14.826995 -10.553029 -0.159612 -6.382575 0.000000 0.000000 0.000000 
-0.004341 82.994148 0.039493 -1.748136 2.646362 1.887346 2.116898 -8.328264 0.074706 1.730010 -0.747826 -0.035529 2.767838 8.179111 1.970169 0.315844 12.309986 2.495089 2.411720 10.422193 1.059861 -70.894859 26.300694 -22.143892 -12.638942 1.382290 -5.342045 3.932091 0.846555 7.410173 -8.040369 10.242517 -11.242032 58.917938 49.910286 33.154221 5.638165 -11.483711 5.593761 -6.960495 -11.852646 -0.574630 4.879935 4.597195 6.862246 2.593569 -7.394897 2.913808 0.616099 4.716148 -0.899131 0.000000 0.000000 0.000000 -6.226573 -1.281342 6.537717 9.978573 4.553750 -14.820594 -10.555705 -0.160408 -6.390757 0.000000 0.000000 0.000000 
